<svg xmlns="http://www.w3.org/2000/svg" width="430" height="430" style="width:100%;height:100%;transform:translate3d(0,0,0);content-visibility:visible" viewBox="0 0 430 430"><defs><clipPath id="a"><path d="M0 0h430v430H0z"/></clipPath><clipPath id="c"><path d="M0 0h430v430H0z"/></clipPath><clipPath id="b"><path d="M0 0h430v430H0z"/></clipPath></defs><g fill="none" clip-path="url(#a)"><g stroke-linecap="round" stroke-linejoin="round" stroke-width="12" clip-path="url(#b)" style="display:block"><path stroke="#07A889" d="M-90 63.5V0c0-49.706 40.294-90 90-90S90-49.706 90 0v63.5" class="secondary" style="display:block" transform="translate(215.283 124.906)"/><path stroke="#121330" d="M.148-95H-130V55c0 22.091 17.909 40 40 40H90c22.091 0 40-17.909 40-40V-95s0 0 0 0H.148" class="primary" style="display:block" transform="translate(215 285)"/><path stroke="#07A889" d="M215.005 230v15.895m0 78.638V340m23.026-94.115h-30.545c-10.886 0-19.711 8.814-19.711 19.7s8.825 19.711 19.711 19.711h15.089c10.876 0 19.681 8.834 19.65 19.71-.031 10.896-8.917 19.681-19.446 19.599l-34.422-.296" class="secondary" style="display:block"/></g><g clip-path="url(#c)" style="display:none"><path class="secondary" style="display:none"/><path class="primary" style="display:none"/><g style="display:none"><path class="secondary"/><path class="secondary"/></g></g></g></svg>